<?xml version="1.0" encoding="UTF-8" standalone="no"?>
<!-- Created with Inkscape (http://www.inkscape.org/) -->

<svg
   width="160"
   height="90"
   viewBox="0 0 42.333332 23.8125"
   version="1.1"
   id="svg1"
   inkscape:version="1.4 (e7c3feb1, 2024-10-09)"
   sodipodi:docname="reel_path_DEFORM_EXPORT.svg"
   xmlns:inkscape="http://www.inkscape.org/namespaces/inkscape"
   xmlns:sodipodi="http://sodipodi.sourceforge.net/DTD/sodipodi-0.dtd"
   xmlns="http://www.w3.org/2000/svg"
   xmlns:svg="http://www.w3.org/2000/svg">
  <sodipodi:namedview
     id="namedview1"
     pagecolor="#ffffff"
     bordercolor="#000000"
     borderopacity="0.25"
     inkscape:showpageshadow="2"
     inkscape:pageopacity="0.0"
     inkscape:pagecheckerboard="0"
     inkscape:deskcolor="#d1d1d1"
     inkscape:document-units="px"
     inkscape:zoom="5.5349675"
     inkscape:cx="77.236226"
     inkscape:cy="19.51231"
     inkscape:window-width="1584"
     inkscape:window-height="951"
     inkscape:window-x="144"
     inkscape:window-y="38"
     inkscape:window-maximized="0"
     inkscape:current-layer="layer1" />
  <defs
     id="defs1">
    <inkscape:path-effect
       effect="lattice2"
       gridpoint0="6.471733,3.6273019"
       gridpoint1="36.279132,3.6273019"
       gridpoint2="6.471733,20.393963"
       gridpoint3="36.279132,20.393963"
       gridpoint4="13.923583,4.6789491"
       gridpoint5="29.926732,1.9542268"
       gridpoint6="13.349957,22.592862"
       gridpoint7="28.922887,19.629129"
       gridpoint8x9="21.518839,4.1531255"
       gridpoint10x11="21.375432,20.393963"
       gridpoint12="6.471733,7.8189672"
       gridpoint13="36.279132,7.8189672"
       gridpoint14="6.471733,16.202298"
       gridpoint15="36.279132,16.202298"
       gridpoint16="13.923583,7.8189672"
       gridpoint17="29.305304,8.8706144"
       gridpoint18="13.923583,16.202298"
       gridpoint19="29.161897,17.540758"
       gridpoint20x21="21.375432,7.8189672"
       gridpoint22x23="21.375432,16.202298"
       gridpoint24x26="8.2882146,12.010632"
       gridpoint25x27="34.749463,12.058435"
       gridpoint28x30="13.971385,12.918873"
       gridpoint29x31="29.305304,13.922718"
       gridpoint32x33x34x35="21.375432,12.010632"
       id="path-effect1"
       is_visible="true"
       lpeversion="1"
       horizontal_mirror="false"
       vertical_mirror="false"
       perimetral="false"
       live_update="true" />
  </defs>
  <g
     inkscape:label="Layer 1"
     inkscape:groupmode="layer"
     id="layer1">
    <path
       id="rect1"
       style="fill:#0c208f;stroke-width:0.0352055;stroke-miterlimit:20;paint-order:stroke fill markers"
       d="m 7.4094776,3.7520495 c 1.9376788,0.2420192 4.5384504,0.4717166 7.7852654,0.4497836 3.401492,-0.022978 6.357498,-0.2989587 9.682597,-0.6257895 3.338052,-0.328104 5.503967,-0.5179527 7.628251,-0.4517662 1.867294,0.058179 2.973139,0.318447 2.973139,0.318447 0.223471,0.044556 0.768155,0.859046 0.733023,1.1181642 -0.179926,1.3270412 -0.502474,2.0773695 -0.983465,4.0142693 -0.427428,1.7212071 -0.602623,3.2135491 -0.386087,4.9513411 0.192136,1.541968 0.714633,3.160521 0.987912,4.172922 0.292503,1.083621 0.38164,1.765166 0.38164,1.765166 0.03592,0.262693 -0.566119,0.869072 -0.855057,0.847975 -2.002558,-0.146222 -4.304715,-0.129421 -7.531814,0.136637 -3.03206,0.249978 -6.399178,0.683115 -9.479057,0.900735 -3.254151,0.229934 -5.693677,0.184093 -7.838074,-0.08483 -1.9764239,-0.24786 -3.1714668,-0.61608 -3.1714668,-0.61608 -0.2685745,-0.0728 -0.8282898,-0.915953 -0.7845384,-1.18654 0.2136617,-1.321419 0.5966883,-2.061667 1.1678648,-3.983536 0.5075702,-1.70785 0.7156139,-3.194716 0.4584769,-4.939276 C 7.9499263,8.9916973 7.3294614,7.356816 7.0049429,6.3358748 6.6572615,5.2420625 6.5517457,4.558783 6.5517457,4.558783 6.5118228,4.3118748 7.1125531,3.7149631 7.4094776,3.7520495 Z"
       sodipodi:nodetypes="zzzzzzzzz" />
  </g>
</svg>
